<?xml version="1.0" encoding="utf-8"?>
<!-- Generator: Adobe Illustrator 23.0.5, SVG Export Plug-In . SVG Version: 6.00 Build 0)  -->
<svg version="1.1" id="Layer_1" xmlns="http://www.w3.org/2000/svg" xmlns:xlink="http://www.w3.org/1999/xlink" x="0px" y="0px"
	 viewBox="0 0 512 512" style="enable-background:new 0 0 512 512;" xml:space="preserve">
<style type="text/css">
	.st0{fill:#6B04A7;}
</style>
<g>
	<g>
		<path class="st0" d="M512,188l-4-39.2c-0.2-2.3-2.6-23.1-15.4-45.4c-12.3-21.6-36.8-48.5-83-53.5c-4.3-0.5-8.6-0.6-12.9-0.5
			c-3.1-2.9-6.4-5.7-9.9-8.2c-19.6-13.9-40.7-20.9-62.7-20.9c-43.8,0-75.2,28.5-76.6,29.7l-29,26.7l26.6,5.1
			c-22.1,16.2-34.8,34.9-42.1,51.4h-70.3l-23.6,42.5H19.9c-11,0-19.9,8.9-19.9,19.9s8.9,19.9,19.9,19.9h30.8
			c-6.4,3.3-10.8,10-10.8,17.7c0,11,8.9,19.9,19.9,19.9H93v119.1H66.4v39.9H93V452H27.9v39.9h422.5V452h-65.1v-39.9h26.6v-39.9
			h-26.6V252.7h20.1c6,9.5,10.7,20.1,14.3,31.8l8.5,28.2l23-18.3c1.9-1.5,19.2-15.7,30.7-42.1c7.9-18.1,14.1-44.7,6.9-78L512,188z
			 M156.3,173H322l22.1,39.9h-210L156.3,173z M219.2,452h-86.4v-39.9h86.4L219.2,452L219.2,452z M345.4,452h-86.4v-39.9h86.4
			L345.4,452L345.4,452z M345.4,293.9h-39.9v39.9h39.9v38.5h-86.4v-79.7h-39.9v79.7h-86.4v-38.5h39.9v-39.9h-39.9v-41.2h212.6
			L345.4,293.9L345.4,293.9z M458,125.4l-31.9-0.4l13.7,28.9c14,29.5,16.1,56.6,6.1,80.7c-0.7,1.6-1.4,3.2-2.1,4.7
			c-12.2-22.2-29.2-40.6-50.8-55c0.5-10.1-5.4-19.8-15.3-23.7c-5.7-2.3-11.8-2.2-17.1-0.2l-15.2-27.3h-96.4c10.6-14,26-25.4,46.3-34
			l29.4-12.5l-24.1-20.9c-0.3-0.3-0.7-0.6-1.1-0.9c7.2-2.7,15.6-4.7,24.7-4.7c13.6,0,26.9,4.6,39.6,13.6c3.7,2.6,6.9,5.6,9.6,8.9
			l7.3,9.1l11.5-1.9c4.2-0.7,8.6-0.8,13.1-0.3c23.2,2.5,40.7,13.5,52,32.5c0.7,1.2,1.4,2.4,2,3.5C458.9,125.4,458.4,125.4,458,125.4
			z"/>
	</g>
</g>
</svg>
